<?xml version="1.0" encoding="UTF-8"?>
<!-- Generator: Adobe Illustrator 25.2.0, SVG Export Plug-In . SVG Version: 6.00 Build 0)  -->
<svg xmlns="http://www.w3.org/2000/svg" xmlns:xlink="http://www.w3.org/1999/xlink" version="1.1" id="Capa_1" x="0px" y="0px" viewBox="0 0 512 512" style="enable-background:new 0 0 512 512;" xml:space="preserve" width="512" height="512">
<g>
	<g>
		<path style="fill:#251426;" d="M453.043,414.692c-3.86,0-7.205-1.887-9.764-5.606c-3.56-5.173-5.006-12.966-4.646-19.295    c-1.976,0.483-4.265,0.388-6.802-0.628c-2.767-1.107-4.69-3.037-5.718-5.737c-3.028-7.963,2.887-19.955,3.141-20.462    c0.278-0.553,0.951-0.776,1.505-0.502c0.554,0.277,0.778,0.951,0.502,1.505c-0.057,0.115-5.729,11.623-3.049,18.665    c0.806,2.117,2.263,3.573,4.452,4.448c2.541,1.016,4.611,0.872,6.202,0.303c0.462-3.285,1.474-5.944,2.984-7.264    c2.061-1.805,3.288-1.523,3.952-0.967c1.301,1.084,0.688,3.573-0.495,5.56c-0.96,1.606-2.427,3.155-4.316,4.171    c-0.504,5.888,0.655,13.873,4.136,18.931c3.49,5.068,8.347,6.007,14.432,2.78c0.55-0.288,1.227-0.083,1.518,0.467    c0.289,0.548,0.079,1.226-0.467,1.516C457.937,413.991,455.394,414.692,453.043,414.692z M444.298,381.103    c-0.21,0.11-0.528,0.317-0.973,0.705c-0.832,0.727-1.474,2.179-1.893,4.071c0.171-0.146,0.326-0.29,0.464-0.428    C443.562,383.807,444.243,381.938,444.298,381.103z"/>
		<path style="fill:#251426;" d="M422.038,424.206c-0.184,0-0.368-0.045-0.541-0.139c-6.717-3.692-10.182-7.878-10.301-12.438    c-0.149-5.854,5.251-10.913,9.845-14.252c-0.662-0.467-1.367-1.009-2.118-1.638c-2.714-2.272-4.186-5.18-4.373-8.641    c-0.565-10.461,10.862-22.457,11.348-22.962c0.434-0.446,1.144-0.458,1.586-0.031c0.447,0.429,0.46,1.139,0.031,1.586    c-0.112,0.117-11.238,11.802-10.726,21.289c0.156,2.853,1.323,5.156,3.575,7.039c0.973,0.814,1.853,1.469,2.649,1.988    c1.089-0.726,2.064-1.329,2.809-1.79l0.889-0.555c1.236-0.801,2.583-0.632,3.428,0.428c0.962,1.203,1.067,3.491-0.324,4.85    c-0.927,0.905-2.896,1.791-6.71-0.269c-4.292,3.026-9.795,7.814-9.665,12.9c0.094,3.706,3.17,7.248,9.14,10.53    c0.541,0.298,0.74,0.98,0.443,1.523C422.816,423.995,422.433,424.206,422.038,424.206z M425.25,397.227    c1.553,0.647,2.537,0.558,2.997,0.111c0.517-0.506,0.443-1.469,0.14-1.846c-0.068-0.087-0.123-0.165-0.458,0.053    c-0.237,0.153-0.55,0.348-0.927,0.582C426.534,396.415,425.936,396.786,425.25,397.227z"/>
		<path style="fill:#F4BBB1;" d="M359.47,290.69c0,0,70.39,17.896,78.741,21.475c8.351,3.579-4.772,32.212-4.772,40.564    c0,8.351-73.969,5.965-81.128,1.193C345.154,349.149,359.47,290.69,359.47,290.69z"/>
		<path style="fill:#F4BBB1;" d="M203.578,293.871c0,0-55.248,44.081-82.878,0.48l-33.445,37.505c0,0,40.704,59.416,101.884,32.195    C223.368,348.822,203.578,293.871,203.578,293.871z"/>
		<path style="fill:#F4BBB1;" d="M367.822,441.014c0,0,33.327-301.797-120.498-189.695    c-121.691,88.684-46.529,189.695-46.529,189.695H367.822z"/>
		<path style="fill:#F19085;" d="M260.682,71.862c0,0-38.441-28.819-61.444-17.863s-63.57,93.754-56.191,119.705    S279.913,157.118,260.682,71.862z"/>
		<path style="fill:#F4BBB1;" d="M298.597,96.855c0,0,108.519-48.086,129.623-24.106c21.104,23.98,1.843,200.034-33.42,210.418    c-71.155,20.954-95.509-68.088-95.509-68.088L298.597,96.855z"/>
		<path style="fill:#F4BBB1;" d="M341.214,150.149c0,0,7.885-62.047-52.489-90.097S160.915,164.517,134.307,161.888    c-26.609-2.629,14.094-96.964,21.372-97.202c7.279-0.238,43.915-29.705,34.608-29.11c-9.307,0.595-40.333,14.432-40.333,14.432    s-2.739-39.258-8.824-38.185c-6.086,1.073-5.853,43.91-5.853,43.91S23.273,150.946,82.923,228.276s120.339,17.311,120.339,17.311    s-38.428,37.104-34.848,39.61C171.993,287.703,359.505,330.619,341.214,150.149z"/>
		<path style="fill:#251426;" d="M208.583,165.732c-0.443,0-0.87-0.146-1.244-0.43c-3.483-2.645-1.908-22.023-1.343-27.899    c0.061-0.619,0.627-1.065,1.225-1.009c0.618,0.059,1.069,0.607,1.01,1.224c-1.253,13.008-1.038,24.869,0.467,25.899    c2.936-1.208,10.29-17.221,14.207-27.039c0.23-0.574,0.887-0.858,1.459-0.625c0.574,0.23,0.854,0.882,0.627,1.458    c-1.755,4.391-10.745,26.396-15.6,28.267C209.119,165.68,208.848,165.732,208.583,165.732z"/>
		<path style="fill:#251426;" d="M245.148,169.251c-0.443,0-0.87-0.146-1.244-0.43c-3.483-2.645-1.908-22.023-1.343-27.899    c0.061-0.619,0.616-1.05,1.225-1.009c0.618,0.059,1.069,0.607,1.01,1.223c-1.253,13.008-1.038,24.869,0.467,25.899    c2.936-1.209,10.29-17.221,14.207-27.039c0.23-0.574,0.885-0.858,1.459-0.625c0.574,0.23,0.854,0.882,0.627,1.458    c-1.755,4.391-10.745,26.395-15.6,28.267C245.684,169.2,245.413,169.251,245.148,169.251z"/>
		<path style="fill:#251426;" d="M391.051,220.642c-0.033,0-0.066-0.001-0.099-0.004c-0.616-0.053-1.073-0.596-1.021-1.213    c2.5-29.201,0.331-69.45-24.207-95.364c-9.854-10.406-20.29-15.197-26.115-17.227c16.338,20.457,16.671,105.365,16.678,109.23    c0,0.62-0.499,1.123-1.119,1.124h-0.002c-0.618,0-1.122-0.501-1.122-1.119c-0.002-1.003-0.379-100.431-19.392-110.682    c-0.486-0.262-0.708-0.837-0.526-1.357c0.182-0.521,0.716-0.838,1.257-0.734c0.657,0.119,65.623,13.093,56.783,116.32    C392.116,220.201,391.627,220.642,391.051,220.642z"/>
		<path style="fill:#FFFFFF;" d="M266.879,209.765c0,0-86.921,23.059-82.007,28.037c18.266,18.506,71.972,15.921,83.112,6.09    C279.125,234.061,266.879,209.765,266.879,209.765z"/>
		<path style="fill:#251426;" d="M377.133,287.821c-21.184,0-37.093-5.981-47.335-17.806    c-17.199-19.863-12.213-48.736-11.992-49.955c0.11-0.611,0.705-1.016,1.303-0.905c0.609,0.111,1.014,0.694,0.905,1.303    c-0.053,0.288-5.008,29.061,11.49,48.099c10.441,12.05,27.195,17.741,49.753,16.945c0.618-0.048,1.139,0.462,1.161,1.081    c0.022,0.619-0.462,1.138-1.082,1.16C379.915,287.796,378.511,287.821,377.133,287.821z"/>
		<path style="fill:#251426;" d="M216.219,290.089c-3.915,0-6.285-0.176-6.423-0.187c-0.618-0.051-1.078-0.594-1.025-1.21    c0.05-0.618,0.602-1.059,1.209-1.026c0.824,0.073,81.838,6.039,92.071-55.935c0.099-0.611,0.692-1.029,1.288-0.923    c0.611,0.101,1.025,0.678,0.924,1.289C295.435,285.559,236.048,290.089,216.219,290.089z"/>
		<g>
			<path style="fill:#251426;" d="M223.477,94.972c-0.136,0-0.276-0.025-0.41-0.078c-0.576-0.227-0.861-0.877-0.635-1.454     c0.079-0.196,1.926-4.818,5.354-6.314c0.57-0.241,1.229,0.011,1.477,0.581c0.248,0.567-0.011,1.229-0.578,1.477     c-2.147,0.935-3.733,3.982-4.162,5.076C224.347,94.703,223.924,94.972,223.477,94.972z"/>
			<path style="fill:#251426;" d="M236.023,99.67c-0.138,0-0.276-0.025-0.412-0.079c-0.576-0.228-0.859-0.877-0.631-1.454     c0.077-0.196,1.926-4.817,5.352-6.313c0.57-0.243,1.229,0.011,1.477,0.581c0.248,0.567-0.011,1.228-0.578,1.477     c-2.572,1.122-4.149,5.039-4.165,5.078C236.893,99.401,236.47,99.67,236.023,99.67z"/>
			<path style="fill:#251426;" d="M223.166,108.349c-0.138,0-0.276-0.025-0.412-0.079c-0.574-0.227-0.859-0.876-0.633-1.452     c0.079-0.196,1.926-4.82,5.356-6.314c0.559-0.244,1.227,0.011,1.474,0.581c0.248,0.568-0.011,1.229-0.581,1.477     c-2.572,1.121-4.147,5.038-4.162,5.077C224.036,108.079,223.613,108.349,223.166,108.349z"/>
			<path style="fill:#251426;" d="M233.622,83.36c-0.136,0-0.276-0.025-0.41-0.078c-0.576-0.227-0.861-0.877-0.635-1.454     c0.079-0.196,1.926-4.818,5.354-6.314c0.567-0.242,1.229,0.013,1.477,0.581c0.248,0.567-0.011,1.229-0.578,1.477     c-2.147,0.935-3.733,3.982-4.162,5.076C234.492,83.091,234.069,83.36,233.622,83.36z"/>
			<path style="fill:#251426;" d="M246.407,72.87c-0.208,0-0.416-0.057-0.602-0.176c-0.524-0.333-0.677-1.026-0.344-1.549     c0.114-0.177,2.817-4.357,6.467-5.165c0.629-0.13,1.205,0.25,1.339,0.853c0.134,0.605-0.248,1.204-0.852,1.337     c-2.287,0.505-4.43,3.19-5.061,4.181C247.139,72.687,246.778,72.87,246.407,72.87z"/>
			<path style="fill:#251426;" d="M251.407,92.096c-0.208,0-0.416-0.057-0.605-0.176c-0.521-0.333-0.675-1.025-0.342-1.548     c0.114-0.177,2.817-4.357,6.471-5.165c0.613-0.129,1.203,0.25,1.336,0.853c0.134,0.605-0.248,1.204-0.854,1.337     c-2.741,0.606-5.039,4.146-5.063,4.182C252.136,91.914,251.775,92.096,251.407,92.096z"/>
			<path style="fill:#251426;" d="M256.088,78.788c-0.208,0-0.416-0.057-0.602-0.176c-0.524-0.333-0.677-1.026-0.344-1.549     c0.114-0.177,2.817-4.357,6.467-5.166c0.627-0.127,1.205,0.25,1.339,0.853c0.134,0.605-0.248,1.204-0.852,1.337     c-2.287,0.506-4.43,3.19-5.061,4.182C256.82,78.605,256.458,78.788,256.088,78.788z"/>
			<path style="fill:#251426;" d="M242.613,86.735c-0.136,0-0.276-0.025-0.41-0.078c-0.576-0.227-0.861-0.877-0.635-1.454     c0.079-0.196,1.926-4.818,5.354-6.314c0.567-0.242,1.227,0.012,1.477,0.581c0.248,0.567-0.011,1.229-0.578,1.477     c-2.147,0.935-3.733,3.982-4.162,5.076C243.483,86.466,243.06,86.735,242.613,86.735z"/>
		</g>
		<path style="fill:#F4BBB1;" d="M369.015,408.802c0,0-3.579,85.9-4.772,89.479s-66.811,0-66.811,0l-7.158-81.128L369.015,408.802z"/>
		<path style="fill:#F4BBB1;" d="M275.957,408.802c0,0-3.579,85.9-4.772,89.479s-66.811,0-66.811,0l-7.158-81.128L275.957,408.802z"/>
		<path style="fill:#251426;" d="M267.989,442.854c-13.865,0-30.795-2.795-45.437-13.309c-0.502-0.361-0.618-1.062-0.256-1.565    c0.361-0.506,1.06-0.619,1.566-0.257c30.192,21.677,70.587,9.509,70.992,9.384c0.602-0.179,1.222,0.148,1.404,0.738    c0.184,0.591-0.147,1.22-0.738,1.404C295.3,439.317,283.584,442.854,267.989,442.854z"/>
		<path style="fill:#EE919B;" d="M460.587,199.496c0,0,72.184-76.275,45.49-99.297c-26.694-23.023-51.669,19.104-51.669,19.104    s-46.859-37.101-56.729-2.103C387.81,152.198,460.587,199.496,460.587,199.496z"/>
		<path style="fill:#F4BBB1;" d="M451.901,318.376c0,0-25.824-11.749-30.548-9.929c-4.723,1.82-21.89,58.159-16.192,65.908    C410.859,382.104,481.821,355.673,451.901,318.376z"/>
		<path style="fill:#F4BBB1;" d="M359.45,392.696c0,0,14.302,46.83,40.184,49.151l-9.371,16.189c0,0-38.97-12.944-43.3-52.217    L359.45,392.696z"/>
		<path style="fill:#251426;" d="M431.143,483.96c-0.3,0-0.609-0.005-0.929-0.019c-11.771-0.461-36.298-10.262-37.621-21.922    c-0.07-0.615,0.372-1.171,0.988-1.24c0.6-0.083,1.172,0.369,1.242,0.988c1.069,9.421,23.224,19.452,35.478,19.933    c1.713,0.07,5.713-0.003,6.112-2.078c0.3-1.544-0.517-3.136-2.425-4.73c-2.261-1.888-5.584-3.405-8.778-4.48    c-2.942,0.415-8.528,0.876-10.546-1.158c-0.981-0.989-0.537-1.842-0.377-2.08c1.154-1.724,6.94-0.389,11.092,0.947    c0.226-0.035,0.456-0.073,0.69-0.114c7.727-1.337,16.643-5.084,19.145-10.437c0.631-1.347,0.375-2.471-0.806-3.537    c-2.156-1.946-6.5-3.089-10.87-3.512c-3.336,3.29-7.477,5.437-10.34,5.501c-2.072-0.003-3.669-1.029-4.143-2.953    c-0.188-0.762-0.221-2.212,1.678-3.348c2.386-1.427,7.12-1.928,11.95-1.564c1.915-2.086,3.442-4.581,3.963-7.176    c0.164-0.819-0.088-1.176-0.357-1.417c-3.356-2.997-21.493,1.283-32.142,4.686c-0.589,0.188-1.22-0.135-1.411-0.726    c-0.188-0.59,0.138-1.221,0.727-1.41c2.944-0.941,28.913-9.056,34.322-4.221c0.683,0.612,1.424,1.722,1.06,3.531    c-0.51,2.537-1.785,4.938-3.448,7.033c4.289,0.621,8.327,1.937,10.515,3.911c1.908,1.725,2.383,3.909,1.334,6.153    c-2.666,5.701-10.732,9.374-17.865,11.089c6.701,2.926,9.976,6.615,9.236,10.438C438.265,481.863,436.664,483.96,431.143,483.96z     M429.68,450.336c-3.38,0-6.357,0.451-7.795,1.312c-0.76,0.453-0.684,0.757-0.653,0.886c0.147,0.596,0.502,1.285,1.917,1.246    c1.921-0.042,4.682-1.364,7.221-3.439C430.137,450.338,429.907,450.336,429.68,450.336z"/>
		<path style="fill:#251426;" d="M359.47,500.198c-0.46,0-0.892-0.286-1.056-0.745c-0.079-0.217-7.869-21.762-16.755-24.354    c-1.06-0.311-2.077-0.15-3.102,0.49c-5.288,3.297-8.864,17.924-9.797,23.282c-0.092,0.538-0.559,0.93-1.104,0.93    c-0.002,0-0.002,0-0.004,0c-0.546-0.002-1.012-0.398-1.102-0.937c-0.026-0.163-2.854-16.356-13.867-24.331    c-1.584-1.145-2.999-1.425-4.344-0.848c-5.665,2.436-8.991,18.687-9.795,24.744c-0.083,0.615-0.659,1.042-1.26,0.964    c-0.616-0.081-1.047-0.645-0.966-1.26c0.313-2.357,3.28-23.132,11.133-26.509c2.105-0.901,4.303-0.532,6.546,1.092    c7.968,5.769,11.86,15.219,13.58,20.94c1.518-6.288,4.732-16.817,9.792-19.972c1.582-0.981,3.231-1.229,4.916-0.739    c9.981,2.91,17.907,24.822,18.24,25.754c0.208,0.583-0.096,1.225-0.679,1.433C359.722,500.177,359.595,500.198,359.47,500.198z"/>
		<path style="fill:#251426;" d="M260.844,499.403c-0.44,0-0.857-0.26-1.036-0.691c-2.377-5.724-9.95-20.981-16.373-22.815    c-0.861-0.246-1.676-0.106-2.489,0.418c-4.508,2.916-7.319,16.101-8.022,20.934c-0.079,0.538-0.53,0.942-1.073,0.96    c-0.508,0.049-1.021-0.354-1.135-0.885c-0.035-0.163-3.569-16.284-11.01-20.749c-0.828-0.495-1.608-0.567-2.456-0.219    c-4.703,1.949-8.956,15.248-10.196,20.208c-0.151,0.601-0.751,0.966-1.36,0.816c-0.602-0.15-0.966-0.759-0.817-1.359    c0.484-1.938,4.923-19.005,11.514-21.737c1.492-0.618,3.034-0.492,4.467,0.368c5.575,3.344,9.039,11.934,10.752,17.402    c1.247-5.748,3.834-14.85,8.119-17.621c1.367-0.887,2.817-1.122,4.324-0.693c8.772,2.506,17.462,23.231,17.828,24.112    c0.237,0.573-0.035,1.229-0.607,1.467C261.133,499.375,260.989,499.403,260.844,499.403z"/>
		<path style="fill:#251426;" d="M404.953,376.964c-0.453,0-0.881-0.276-1.049-0.725c-0.219-0.579,0.074-1.227,0.653-1.446    c12.682-4.789,26.378-10.707,28.256-12.67c-1.422-2.069-12.962-8.619-23.305-13.738c-0.401-0.198-0.644-0.613-0.622-1.059    c0.02-0.445,0.302-0.836,0.721-0.995c9.137-3.483,19.079-8.559,19.311-10.562c0.048-2.193-11.604-11.31-22.426-18.495    c-0.517-0.343-0.657-1.038-0.315-1.554c0.346-0.518,1.045-0.656,1.555-0.314c7.205,4.783,23.914,16.37,23.416,20.623    c-0.443,3.791-12.198,8.992-18.382,11.475c15.236,7.657,22.755,12.687,22.361,14.964c-0.489,2.813-16.461,9.396-29.776,14.425    C405.218,376.941,405.085,376.964,404.953,376.964z"/>
		<path style="fill:#251426;" d="M404.953,376.964c-0.616,0-1.117-0.496-1.122-1.113c-0.217-26.674,0.074-58.816,2.681-60.46    c2.71-1.711,28.797-0.886,36.729-0.591c0.618,0.023,1.102,0.543,1.08,1.162c-0.024,0.605-0.521,1.08-1.122,1.08    c-0.013,0-0.026,0-0.042-0.001c-13.278-0.492-32.714-0.745-35.325,0.197c-1.597,3.493-1.93,37.609-1.759,58.596    c0.004,0.619-0.493,1.125-1.113,1.13C404.96,376.964,404.955,376.964,404.953,376.964z"/>
		<path style="fill:#251426;" d="M426.597,316.124c-0.221,0-0.403-0.054-0.519-0.099c-0.907-0.359-3.667-1.454,2.149-54.098    c0.068-0.618,0.627-1.059,1.238-0.992c0.616,0.068,1.06,0.622,0.992,1.238c-2.331,21.1-4.195,44.449-3.54,50.625    c6.226-10.809,35.899-77.035,31.042-117.083c-0.074-0.614,0.364-1.173,0.977-1.249c0.602-0.073,1.174,0.363,1.249,0.979    c5.251,43.301-27.885,114.13-32.19,119.856C427.5,315.96,426.985,316.124,426.597,316.124z"/>
		<path style="fill:#84A4A0;" d="M429.552,278.632c0,0-81.633-65.389-35.853-93.726c21.845-13.522,40.138,27.44,40.138,27.44    s17.586-39.016,47.722-18.691C518.925,218.855,429.552,278.632,429.552,278.632z"/>
		<path style="fill:#84A4A0;" d="M426.679,269.215c0,0-9.147,16.305-6.363,17.498c2.784,1.193,12.726,1.988,14.714,0.398    C437.019,285.52,428.27,267.226,426.679,269.215z"/>
		<path style="fill:#251426;" d="M106.406,339.262c-7.735,0.001-18.224-5.616-19.692-6.423c-0.543-0.298-0.74-0.98-0.443-1.523    c0.3-0.541,0.975-0.743,1.525-0.443c4.745,2.609,18.104,8.608,22.847,5.05c0.73-0.548,1.133-1.295,1.231-2.283    c0.467-4.725-6.013-13.12-8.553-15.956c-0.381-0.427-0.379-1.072,0.004-1.498c0.386-0.427,1.025-0.491,1.49-0.159    c0.136,0.099,13.615,9.704,19.228,4.093c4.741-4.74-1.525-19.836-4.338-25.253c-0.287-0.55-0.072-1.227,0.478-1.513    c0.545-0.283,1.227-0.072,1.512,0.479c0.445,0.854,10.8,21.009,3.935,27.873c-4.381,4.384-11.784,1.887-16.814-0.671    c2.664,3.756,5.674,8.95,5.291,12.827c-0.162,1.627-0.874,2.923-2.118,3.856C110.514,338.824,108.568,339.262,106.406,339.262z"/>
		<path style="fill:#251426;" d="M178.125,374.529c-0.561,0-1.045-0.421-1.113-0.992c-3.978-34.213,19.824-70.382,20.065-70.743    c0.344-0.517,1.043-0.653,1.555-0.311c0.515,0.344,0.655,1.039,0.311,1.555c-0.237,0.355-23.585,35.854-19.701,69.241    c0.07,0.614-0.37,1.172-0.986,1.243C178.213,374.527,178.169,374.529,178.125,374.529z"/>
		<g>
			<path style="fill:#251426;" d="M359.148,375.607c-0.162,0-0.326-0.035-0.48-0.108c-0.561-0.265-0.8-0.934-0.535-1.494     c1.203-2.536-0.18-6.525-0.195-6.564c-0.206-0.584,0.101-1.225,0.684-1.432c0.596-0.206,1.227,0.101,1.431,0.681     c0.072,0.198,1.711,4.897,0.11,8.276C359.969,375.37,359.566,375.607,359.148,375.607z"/>
			<path style="fill:#251426;" d="M346.599,380.304c-0.162,0-0.326-0.035-0.48-0.108c-0.561-0.265-0.8-0.934-0.535-1.494     c1.203-2.536-0.18-6.525-0.195-6.564c-0.206-0.584,0.101-1.225,0.684-1.432c0.598-0.207,1.227,0.101,1.431,0.681     c0.072,0.198,1.711,4.897,0.11,8.276C347.421,380.067,347.018,380.304,346.599,380.304z"/>
			<path style="fill:#251426;" d="M350.597,365.315c-0.162,0-0.326-0.035-0.482-0.108c-0.559-0.266-0.797-0.934-0.53-1.494     c1.003-2.115,0.199-5.455-0.195-6.562c-0.208-0.584,0.096-1.226,0.679-1.434c0.587-0.204,1.227,0.098,1.433,0.68     c0.072,0.199,1.713,4.9,0.107,8.278C351.419,365.078,351.016,365.315,350.597,365.315z"/>
			<path style="fill:#251426;" d="M359.121,391.026c-0.162,0-0.326-0.035-0.482-0.108c-0.559-0.266-0.797-0.934-0.53-1.494     c1.003-2.115,0.199-5.455-0.195-6.562c-0.208-0.584,0.096-1.226,0.679-1.434c0.585-0.204,1.227,0.097,1.433,0.68     c0.072,0.199,1.713,4.9,0.107,8.278C359.943,390.79,359.54,391.026,359.121,391.026z"/>
			<path style="fill:#251426;" d="M354.937,407.224c-0.232,0-0.467-0.071-0.666-0.22c-0.499-0.368-0.605-1.07-0.237-1.569     c1.393-1.883,1.246-5.314,1.073-6.478c-0.092-0.612,0.331-1.183,0.942-1.275c0.613-0.071,1.183,0.33,1.275,0.943     c0.033,0.209,0.738,5.137-1.485,8.144C355.618,407.067,355.279,407.224,354.937,407.224z"/>
			<path style="fill:#251426;" d="M338.542,396.007c-0.232,0-0.467-0.071-0.666-0.22c-0.499-0.368-0.605-1.07-0.237-1.569     c1.393-1.882,1.244-5.312,1.071-6.476c-0.092-0.612,0.329-1.184,0.942-1.276c0.607-0.081,1.183,0.33,1.275,0.943     c0.033,0.208,0.74,5.135-1.483,8.143C339.223,395.849,338.884,396.007,338.542,396.007z"/>
			<path style="fill:#251426;" d="M343.751,409.118c-0.232,0-0.467-0.071-0.666-0.22c-0.5-0.368-0.605-1.07-0.237-1.569     c1.393-1.882,1.244-5.314,1.071-6.477c-0.092-0.612,0.329-1.184,0.942-1.276c0.611-0.076,1.185,0.329,1.275,0.943     c0.033,0.208,0.74,5.136-1.483,8.144C344.433,408.96,344.093,409.118,343.751,409.118z"/>
			<path style="fill:#251426;" d="M350.124,394.385c-0.162,0-0.326-0.035-0.482-0.108c-0.559-0.266-0.797-0.934-0.53-1.494     c1.003-2.115,0.199-5.455-0.195-6.562c-0.208-0.584,0.096-1.226,0.679-1.434c0.587-0.207,1.227,0.096,1.433,0.68     c0.072,0.199,1.713,4.9,0.107,8.278C350.946,394.148,350.543,394.385,350.124,394.385z"/>
		</g>
		<path style="fill:#251426;" d="M173.794,183.376c-0.489,0-0.938-0.321-1.078-0.814c-4.476-15.66-20.282-30.094-20.441-30.238    c-0.458-0.415-0.493-1.125-0.079-1.584c0.418-0.458,1.13-0.494,1.586-0.079c0.668,0.605,16.439,15.014,21.09,31.285    c0.171,0.595-0.173,1.216-0.769,1.387C174,183.362,173.895,183.376,173.794,183.376z"/>
		<circle style="fill:#F19085;" cx="268.386" cy="187.637" r="13.074"/>
		<path style="fill:#251426;" d="M137.648,211.061c-0.232,0-0.464-0.071-0.666-0.219c-0.497-0.367-0.605-1.069-0.237-1.567    c10.296-13.975-0.813-46.321-0.924-46.647c-0.206-0.585,0.103-1.225,0.688-1.428c0.585-0.202,1.227,0.105,1.428,0.69    c0.48,1.372,11.606,33.798,0.613,48.715C138.331,210.903,137.992,211.061,137.648,211.061z"/>
		<path style="fill:#251426;" d="M94.583,182.607c-0.388,0-0.767-0.202-0.973-0.561c-0.311-0.537-0.127-1.222,0.41-1.532    c0.197-0.114,19.857-11.576,28.823-26.523c0.322-0.532,1.014-0.701,1.538-0.384c0.532,0.319,0.705,1.008,0.386,1.539    c-9.271,15.452-28.799,26.835-29.625,27.312C94.964,182.559,94.771,182.607,94.583,182.607z"/>
		<path style="fill:#251426;" d="M103.582,140.928c-6.11,0-10.989-0.572-11.444-0.627c-0.613-0.074-1.052-0.634-0.977-1.249    c0.074-0.616,0.655-1.039,1.249-0.979c0.248,0.032,24.965,2.927,32.948-4.331c0.46-0.414,1.168-0.382,1.584,0.076    c0.416,0.459,0.383,1.168-0.077,1.585C121.89,139.927,111.661,140.928,103.582,140.928z"/>
		<path style="fill:#251426;" d="M127.958,116.617c-8.154,0-19.489-6.121-20.071-6.438c-0.543-0.297-0.745-0.978-0.447-1.521    c0.294-0.544,0.979-0.744,1.52-0.448c4.557,2.484,17.53,8.292,22.759,5.388c0.537-0.298,1.222-0.107,1.527,0.436    c0.3,0.541,0.105,1.225-0.436,1.525C131.459,116.31,129.787,116.617,127.958,116.617z"/>
		<path style="fill:#251426;" d="M139.186,91.089c-11.236,0-17.587-9.33-17.852-9.728c-0.344-0.515-0.204-1.209,0.311-1.554    c0.51-0.343,1.209-0.208,1.555,0.309c0.057,0.087,5.972,8.73,15.986,8.73c0.62,0,1.122,0.502,1.122,1.122    S139.805,91.089,139.186,91.089z"/>
		<g>
			<path style="fill:#251426;" d="M176.561,335.28c-0.53,0-1.062-0.055-1.582-0.181c-0.602-0.147-0.97-0.754-0.824-1.356     c0.147-0.601,0.762-0.968,1.354-0.824c2.184,0.536,5.179-0.876,6.147-1.467c0.526-0.322,1.218-0.158,1.54,0.376     c0.322,0.529,0.156,1.219-0.375,1.541C182.673,333.461,179.639,335.28,176.561,335.28z"/>
			<path style="fill:#251426;" d="M169.654,324.321c-0.532,0-1.062-0.055-1.582-0.181c-0.602-0.147-0.97-0.754-0.824-1.355     s0.747-0.97,1.354-0.825c2.202,0.54,5.179-0.878,6.147-1.468c0.526-0.321,1.218-0.156,1.54,0.376     c0.322,0.529,0.156,1.219-0.375,1.541C175.766,322.501,172.732,324.321,169.654,324.321z"/>
			<path style="fill:#251426;" d="M161.956,338.281c-0.53,0-1.062-0.055-1.582-0.181c-0.602-0.147-0.97-0.754-0.824-1.355     c0.145-0.601,0.749-0.97,1.354-0.825c2.633,0.64,6.116-1.447,6.152-1.469c0.528-0.319,1.218-0.148,1.54,0.378     c0.32,0.53,0.151,1.218-0.377,1.54C168.07,336.46,165.036,338.281,161.956,338.281z"/>
			<path style="fill:#251426;" d="M147.322,337.888c-1.111,0-2.272-0.165-3.31-0.644c-0.561-0.26-0.806-0.927-0.548-1.489     c0.263-0.565,0.927-0.807,1.49-0.549c2.042,0.943,5.251,0.136,6.314-0.257c0.574-0.215,1.225,0.082,1.439,0.665     c0.215,0.582-0.083,1.226-0.664,1.44C151.911,337.103,149.738,337.888,147.322,337.888z"/>
			<path style="fill:#251426;" d="M154.726,320.165c-1.111,0-2.272-0.165-3.31-0.644c-0.561-0.26-0.806-0.927-0.548-1.489     c0.261-0.564,0.924-0.806,1.49-0.549c2.042,0.945,5.249,0.136,6.314-0.257c0.574-0.213,1.225,0.082,1.439,0.665     c0.215,0.582-0.083,1.226-0.664,1.44C159.316,319.379,157.143,320.165,154.726,320.165z"/>
			<path style="fill:#251426;" d="M143.333,327.669c-1.108,0-2.27-0.165-3.306-0.644c-0.563-0.26-0.808-0.926-0.55-1.489     c0.258-0.563,0.931-0.807,1.487-0.549c2.055,0.946,5.253,0.135,6.316-0.259c0.574-0.216,1.225,0.083,1.439,0.665     s-0.083,1.226-0.664,1.44C147.924,326.882,145.749,327.669,143.333,327.669z"/>
			<path style="fill:#251426;" d="M157.011,330.421c-0.53,0-1.062-0.055-1.582-0.181c-0.602-0.147-0.97-0.754-0.824-1.355     c0.145-0.601,0.743-0.97,1.354-0.825c2.633,0.636,6.116-1.447,6.151-1.469c0.526-0.318,1.218-0.149,1.54,0.378     c0.32,0.53,0.151,1.218-0.377,1.54C163.126,328.601,160.091,330.421,157.011,330.421z"/>
		</g>
	</g>
	<g>
		<path style="fill:#E33961;" d="M65.723,315.01c0,0-84.277-62.655-61.963-89.944s54.193,9.889,54.193,9.889    s26.217-59.618,41.986-26.851S65.723,315.01,65.723,315.01z"/>
		<path style="fill:#251426;" d="M95.735,237.594c-0.011,0-0.02,0-0.031,0c-0.62-0.018-1.108-0.533-1.091-1.152    c0.397-14.286-2.381-18.265-4.78-19.088c-5.242-1.803-14.349,8.674-17.418,12.861c-0.366,0.502-1.073,0.607-1.569,0.241    c-0.499-0.367-0.607-1.068-0.241-1.569c1.229-1.677,12.246-16.292,19.955-13.656c4.59,1.574,6.649,8.532,6.296,21.272    C96.839,237.112,96.34,237.594,95.735,237.594z"/>
	</g>
	<path style="fill:#251426;" d="M469.493,234.133c-0.267,0-0.537-0.095-0.749-0.288c-0.462-0.414-0.499-1.124-0.085-1.584   c6.655-7.395,8.049-17.189,6.48-23.616c-1.001-4.098-3.146-6.952-6.04-8.038c-8.314-3.112-17.068,8.718-17.155,8.838   c-0.366,0.502-1.067,0.608-1.566,0.246c-0.502-0.365-0.611-1.066-0.248-1.566c0.397-0.548,9.838-13.337,19.758-9.619   c3.608,1.354,6.248,4.766,7.431,9.606c1.709,7,0.21,17.646-6.991,25.649C470.105,234.009,469.8,234.133,469.493,234.133z"/>
	<path style="fill:#251426;" d="M486.796,141.847c-0.278,0-0.556-0.103-0.773-0.309c-0.449-0.427-0.467-1.137-0.039-1.586   c0.147-0.153,14.54-15.412,13.863-26.318c-0.173-2.755-1.277-4.929-3.376-6.647c-2.408-1.969-5.181-2.8-8.263-2.466   c-9.961,1.081-20.038,13.7-20.139,13.828c-0.383,0.485-1.089,0.572-1.575,0.184c-0.486-0.383-0.57-1.089-0.186-1.574   c0.434-0.55,10.756-13.482,21.655-14.668c3.7-0.402,7.039,0.595,9.928,2.959c2.574,2.106,3.985,4.881,4.195,8.247   c0.736,11.882-13.856,27.349-14.476,28.002C487.387,141.729,487.091,141.847,486.796,141.847z"/>
	<path style="fill:#251426;" d="M461.383,186.923c-0.609,0-1.15-0.329-1.505-0.919c-1.731-2.888-4.259-7.937-4.366-8.151   c-0.276-0.554-0.053-1.228,0.502-1.505c0.55-0.276,1.227-0.054,1.505,0.502c0.024,0.049,2.362,4.715,4.04,7.59   c1.249-1.308,3.702-6.564,5.442-11.23c0.217-0.578,0.861-0.873,1.444-0.659c0.581,0.217,0.876,0.863,0.659,1.444   c-2.153,5.775-5.212,12.705-7.56,12.922C461.489,186.92,461.436,186.923,461.383,186.923z"/>
	<path style="fill:#251426;" d="M427.541,275.411c-0.331,0-0.727-0.147-0.946-0.366c-0.287-0.286-1.157-1.157-2.055-12.238   c-0.05-0.618,0.41-1.159,1.027-1.209c0.618-0.041,1.159,0.411,1.207,1.027c0.287,3.53,0.749,7.566,1.15,9.646   c1.441-2.023,4.092-6.593,6.259-10.659c0.294-0.547,0.975-0.747,1.518-0.462c0.545,0.292,0.754,0.972,0.462,1.518   c-6.644,12.46-7.93,12.651-8.478,12.733C427.64,275.407,427.592,275.411,427.541,275.411z"/>
</g>















</svg>
